# xmcd
#
# Track frame offsets: 
#        182
#        16170
#        37797
#        50945
#        68350
#        79465
#        95095
#        105137
#        129342
#        150142
#        161315
#        180512
#        197482
#        207610
#        225390
#        237517
#        247910
#        264415
#        285317
#
# Disc length: 3941 seconds
#
# Revision: 6
# Processed by: cddbd v1.5.2PL0 Copyright (c) Steve Scherf et al.
# Submitted via: ExactAudioCopyFreeDBPlugin 1.0
#
DISCID=e30f6313
DTITLE=Carol Kidd - The Very Best of Carol Kidd Volumn I
DYEAR=1995
DGENRE=Jazz
TTITLE0=I got plenty of nuthin
TTITLE1=Geogia on my mind
TTITLE2=Sing for your supper
TTITLE3=Then I'll be tired of you
TTITLE4=I wish I'd met you
TTITLE5=I'm shadowing you
TTITLE6=Haven't we met
TTITLE7=The night we called it a day
TTITLE8=Autumn in new york - My funny valentine
TTITLE9=You're cheating yourself
TTITLE10=Where or when
TTITLE11=How little we know
TTITLE12=We'll be together again
TTITLE13=Don't worry about me
TTITLE14=Never let me go
TTITLE15=I'll take romance
TTITLE16=Lean baby
TTITLE17=Don't take your love from me
TTITLE18=Nice work if you can get it
EXTD=
EXTT0=
EXTT1=
EXTT2=
EXTT3=
EXTT4=
EXTT5=
EXTT6=
EXTT7=
EXTT8=
EXTT9=
EXTT10=
EXTT11=
EXTT12=
EXTT13=
EXTT14=
EXTT15=
EXTT16=
EXTT17=
EXTT18=
PLAYORDER=
